# xmcd CD database file
#
# Track frame offsets:
#	150
#	13895
#	30785
#	43480
#	56075
#	73308
#	87918
#	101628
#	114063
#	127438
#	138300
#	152788
#	167833
#	189625
#	192008
#	206770
#
# Disc length: 2904 seconds
#
# Revision: 0
# Processed by: cddbd v1.4PL0 Copyright (c) Steve Scherf et al.
# Submitted via: CDex 1.40Release
#
DISCID=ea0b5610
DTITLE=Red Meat - Alameda County Line
DYEAR=2001
DGENRE=Country
TTITLE0=That's What I'm Here For
TTITLE1=Midwest Blues
TTITLE2=The Memory of Your Smile
TTITLE3=Under the Wrench
TTITLE4=Sweet Song
TTITLE5=Lolita
TTITLE6=Stay Away From Me
TTITLE7=Buckeye
TTITLE8=Mr. Heartache
TTITLE9=Catfish Fry
TTITLE10=This Property's Condemned
TTITLE11=Alameda County Line
TTITLE12=Nashville Confidential
TTITLE13=Intro (Live)
TTITLE14=Streets of Baltimore (Live)
TTITLE15=The Girl with the Biggest Hair (Live)
EXTD=YEAR: 2001 ID3G: 2
EXTT0=
EXTT1=
EXTT2=
EXTT3=
EXTT4=
EXTT5=
EXTT6=
EXTT7=
EXTT8=
EXTT9=
EXTT10=
EXTT11=
EXTT12=
EXTT13=
EXTT14=
EXTT15=
PLAYORDER=
